<svg xmlns="http://www.w3.org/2000/svg" xmlns:xlink="http://www.w3.org/1999/xlink" xmlns:lucid="lucid" width="1870.4" height="1323.2"><g transform="translate(0 0)" lucid:page-tab-id="0_0"><path d="M0 0h1870.4v1323.2H0z" fill="#4384ae"/><path d="M80 280h226.9v62.1H80z" stroke="#3d4752" stroke-width="2" fill="#3e5778"/><path d="M102.7 280v62.1M284.2 280v62.1" stroke="#3d4752" stroke-width="2" fill="none"/><use xlink:href="#a" transform="matrix(1,0,0,1,113.36094473021083,285) translate(61.55 30.1)"/><path d="M790.63 233.24h340.33v72.47H790.63z" stroke="#3d4752" stroke-width="2" fill="#3e5778"/><use xlink:href="#b" transform="matrix(1,0,0,1,795.6312402431558,238.24432182755754) translate(91.17499999999998 34.0875)"/><use xlink:href="#c" transform="matrix(1,0,0,1,795.6312402431558,238.24432182755754) translate(162.075 34.0875)"/><path d="M668.96 46.9c19.77 0 35.8 18.54 35.8 41.4 0 22.88-16.03 41.42-35.8 41.42h-286.3c-19.77 0-35.8-18.54-35.8-41.4 0-22.88 16.03-41.42 35.8-41.42z" stroke="#3d4752" stroke-width="2" fill="#3e5778"/><path d="M668.96 129.72c-19.76 0-35.78-18.54-35.78-41.4 0-22.88 16.02-41.42 35.78-41.42" stroke="#3d4752" stroke-width="2" fill="none"/><use xlink:href="#d" transform="matrix(1,0,0,1,351.86706808208635,51.90027860206894) translate(100.57499999999999 39.49375)"/><path d="M193.44 278V88.3h133.93" stroke="#404853" stroke-width="2" fill="none"/><path d="M194.44 279h-2v-1.03h2z" fill="#404853"/><path d="M342.63 88.3l-14.26 4.65v-9.28z" stroke="#404853" stroke-width="2" fill="#404853"/><path d="M961.8 180.48v33.26h-2v-31.26H788.02v-2zm-331.53 0v2H524.8v-50.76h2v48.76z" fill="#404853"/><path d="M526.8 131.75h-2v-1.03h2zM960.8 229l-4.64-14.26h9.27z" fill="#404853"/><path d="M960.8 232.24l-6-18.5h12zm-3.26-16.5l3.26 10.03 3.26-10.03z" fill="#404853"/><use xlink:href="#e" transform="matrix(1,0,0,1,630.2684999046328,170.68208271542306) translate(0 14.4)"/><use xlink:href="#f" transform="matrix(1,0,0,1,630.2684999046328,170.68208271542306) translate(56.95 14.4)"/><use xlink:href="#g" transform="matrix(1,0,0,1,630.2684999046328,170.68208271542306) translate(100.80000000000001 14.4)"/><path d="M612.33 419.6h286.3v79.5c-47.8-13.28-77.58-13.28-95.6-13.28-28.64 0-66.72 13.28-95.36 13.28-17.75 0-47.8 0-95.34-13.28z" stroke="#3d4752" stroke-width="2" fill="#3e5778"/><use xlink:href="#h" transform="matrix(1,0,0,1,617.3335263788049,424.5883650530463) translate(73.625 32.2125)"/><path d="M1098.33 425.7h286.3v79.5c-47.8-13.27-77.58-13.27-95.62-13.27-28.62 0-66.7 13.27-95.33 13.27-17.75 0-47.8 0-95.34-13.27z" stroke="#3d4752" stroke-width="2" fill="#3e5778"/><use xlink:href="#i" transform="matrix(1,0,0,1,1103.331866889575,430.69630869210386) translate(91.6 32.2125)"/><g fill="none"><path d="M834.76 392.05v-82.82h302.5v82.82z"/><path d="M1137.27 392.05c0-10.44-8.46-18.9-18.9-18.9h-113.45c-10.44 0-18.9-8.47-18.9-18.9 0 10.43-8.47 18.9-18.9 18.9H853.65c-10.44 0-18.9 8.46-18.9 18.9" stroke="#3d4752" stroke-width="2"/></g><use xlink:href="#j" transform="matrix(1,0,0,1,839.7563540620283,314.2312816761737) translate(38 35.4)"/><path d="M1241.5 500.32v68.27h-240.76v50.75" stroke="#404853" stroke-width="2" fill="none"/><path d="M1242.5 500.35h-2v-.85l2-.35z" fill="#404853"/><path d="M1000.74 634.62l-4.63-14.27h9.28z" stroke="#404853" stroke-width="2" fill="#404853"/><path d="M610.33 459.34H394.6V840.1h21.5" stroke="#404853" stroke-width="2" fill="none"/><path d="M611.33 460.34h-1.02v-2h1.03z" fill="#404853"/><path d="M431.37 840.1l-14.27 4.64v-9.27z" stroke="#404853" stroke-width="2" fill="#404853"/><path d="M445.83 395.57h1103.34v139.76H445.83z" stroke="#3d4752" stroke-width="2" fill-opacity="0"/><path d="M389.6 333.46h264.8v62.1H389.6z" stroke="#000" stroke-opacity="0" stroke-width="2" fill="#fff" fill-opacity="0"/><use xlink:href="#k" transform="matrix(1,0,0,1,394.60146339265566,338.456007295487) translate(75.1 30.9625)"/><use xlink:href="#l" transform="matrix(1,0,0,1,394.60146339265566,338.456007295487) translate(118.94999999999999 30.9625)"/><path d="M1172.96 270.48h-40v-2h38V89.3H976.9v-2h196.06zM724.26 89.3v-2H876.1v2z" fill="#404853"/><path d="M1133 270.48h-1.04v-2h1.03zM723.25 92.95L709 88.3l14.25-4.63z" fill="#404853"/><path d="M724.25 94.32l-18.5-6 18.5-6.02zm-12.03-6l10.03 3.25v-6.52z" fill="#404853"/><use xlink:href="#k" transform="matrix(1,0,0,1,876.1071815121285,77.51006598551083) translate(0 14.4)"/><use xlink:href="#g" transform="matrix(1,0,0,1,876.1071815121285,77.51006598551083) translate(43.85 14.4)"/><path d="M211.2 597.44H1800V1260H211.2z" stroke="#3d4752" stroke-width="2" fill-opacity="0"/><path d="M1563.93 927.48c16.57 0 30 13.43 30 30v209.16c0 16.57-13.43 30-30 30H477.3c-16.57 0-30-13.43-30-30V957.48c0-16.57 13.43-30 30-30z" stroke="#3d4752" stroke-width="2" fill-opacity="0"/><path d="M687.02 996.1c-7.75 0-14.04 12.98-14.04 29 0 16 6.3 28.98 14.04 28.98H560.64c-7.75 0-14.04-12.98-14.04-29 0-16 6.3-28.98 14.04-28.98z" stroke="#3d4752" stroke-width="2" fill="#3e5778"/><use xlink:href="#m" transform="matrix(1,0,0,1,551.5995262185754,1001.1013406892363) translate(39.025 26.4)"/><path d="M727.15 1039.58c-7.76 0-14.05 12.98-14.05 29 0 16 6.3 28.98 14.05 28.98H600.76c-7.75 0-14.04-12.98-14.04-29 0-16 6.3-28.98 14.04-28.98z" stroke="#3d4752" stroke-width="2" fill="#3e5778"/><use xlink:href="#m" transform="matrix(1,0,0,1,591.7207944818042,1044.58161744185) translate(39.025 26.4)"/><path d="M767.27 1083.06c-7.76 0-14.05 12.98-14.05 29 0 16 6.3 28.98 14.05 28.98H640.88c-7.75 0-14.04-12.98-14.04-29 0-16 6.3-28.98 14.04-28.98z" stroke="#3d4752" stroke-width="2" fill="#3e5778"/><use xlink:href="#m" transform="matrix(1,0,0,1,631.8420627450332,1088.061894194464) translate(39.025 26.4)"/><path d="M523.23 964.75h267.4v207.64h-267.4z" stroke="#3d4752" stroke-width="2" fill-opacity="0"/><path d="M447.3 1111.75h264.8v62.12H447.3z" stroke="#000" stroke-opacity="0" stroke-width="2" fill="#fff" fill-opacity="0"/><use xlink:href="#n" transform="matrix(1,0,0,1,452.29938726708383,1116.7529611672774) translate(103.05 30.9625)"/><use xlink:href="#o" transform="matrix(1,0,0,1,452.29938726708383,1116.7529611672774) translate(141.95 30.9625)"/><path d="M1098.33 1015.48c-10.03 0-18.17 13.24-18.17 29.57 0 16.34 8.14 29.58 18.17 29.58H934.78c-10.04 0-18.17-13.24-18.17-29.58 0-16.33 8.14-29.57 18.18-29.57z" stroke="#3d4752" stroke-width="2" fill="#3e5778"/><use xlink:href="#p" transform="matrix(1,0,0,1,921.6061224031849,1020.475205500775) translate(58.025 30.025)"/><path d="M1137.27 1059.84c-10.03 0-18.17 13.25-18.17 29.58 0 16.34 8.14 29.58 18.17 29.58H973.7c-10.04 0-18.17-13.24-18.17-29.58 0-16.33 8.13-29.58 18.17-29.58z" stroke="#3d4752" stroke-width="2" fill="#3e5778"/><use xlink:href="#p" transform="matrix(1,0,0,1,960.5473533645538,1064.8428348401771) translate(58.025 30.025)"/><path d="M893.24 964h267.4v207.65h-267.4z" stroke="#3d4752" stroke-width="2" fill-opacity="0"/><path d="M804.97 1111h264.8v62.13h-264.8z" stroke="#000" stroke-opacity="0" stroke-width="2" fill="#fff" fill-opacity="0"/><use xlink:href="#q" transform="matrix(1,0,0,1,809.9745936472598,1116.0135006782875) translate(103.05 30.9625)"/><use xlink:href="#r" transform="matrix(1,0,0,1,809.9745936472598,1116.0135006782875) translate(141.95 30.9625)"/><path d="M1412.74 993.88c-7.1 0-12.87 10-12.87 22.3 0 12.32 5.76 22.3 12.87 22.3H1296.9c-7.12 0-12.88-9.98-12.88-22.3 0-12.3 5.76-22.3 12.87-22.3z" stroke="#3d4752" stroke-width="2" fill="#3e5778"/><use xlink:href="#p" transform="matrix(1,0,0,1,1289.0166365237026,998.8829592222658) translate(34.025 20.9625)"/><path d="M1431.13 1027.33c-7.1 0-12.87 9.98-12.87 22.3 0 12.3 5.76 22.3 12.87 22.3h-115.85c-7.1 0-12.87-10-12.87-22.3 0-12.32 5.77-22.3 12.88-22.3z" stroke="#3d4752" stroke-width="2" fill="#3e5778"/><use xlink:href="#p" transform="matrix(1,0,0,1,1307.4055511443496,1032.3293259550458) translate(34.025 20.9625)"/><path d="M1469.13 1058.55c-7.1 0-12.87 9.98-12.87 22.3 0 12.3 5.76 22.3 12.87 22.3h-115.85c-7.1 0-12.87-10-12.87-22.3 0-12.32 5.77-22.3 12.88-22.3z" stroke="#3d4752" stroke-width="2" fill="#3e5778"/><use xlink:href="#p" transform="matrix(1,0,0,1,1345.409308027019,1063.5459349056405) translate(34.025 20.9625)"/><path d="M1504.68 1094.22c-7.1 0-12.87 10-12.87 22.3s5.77 22.3 12.88 22.3h-115.85c-7.1 0-12.87-10-12.87-22.3s5.76-22.3 12.87-22.3z" stroke="#3d4752" stroke-width="2" fill="#3e5778"/><use xlink:href="#p" transform="matrix(1,0,0,1,1380.9612096269354,1099.2220594206058) translate(34.025 20.9625)"/><path d="M1249 962.53h267.4v207.64H1249z" stroke="#3d4752" stroke-width="2" fill-opacity="0"/><path d="M1174.98 1109.53h264.8v62.12h-264.8z" stroke="#000" stroke-opacity="0" stroke-width="2" fill="#fff" fill-opacity="0"/><use xlink:href="#q" transform="matrix(1,0,0,1,1179.98118983187,1114.5345797003072) translate(103.05 30.9625)"/><use xlink:href="#s" transform="matrix(1,0,0,1,1179.98118983187,1114.5345797003072) translate(141.95 30.9625)"/><path d="M703.35 809.05c-9.22 0-16.7 13.9-16.7 31.05 0 17.16 7.48 31.06 16.7 31.06H552.97c-9.22 0-16.7-13.9-16.7-31.06 0-17.15 7.48-31.05 16.7-31.05z" stroke="#3d4752" stroke-width="2" fill="#3e5778"/><use xlink:href="#t" transform="matrix(1,0,0,1,541.2773184973158,814.0474153943173) translate(24.574999999999996 30.9625)"/><path d="M1065.72 809.05c-9.23 0-16.7 13.9-16.7 31.05 0 17.16 7.47 31.06 16.7 31.06H915.35c-9.23 0-16.7-13.9-16.7-31.06 0-17.15 7.47-31.05 16.7-31.05z" stroke="#3d4752" stroke-width="2" fill="#3e5778"/><use xlink:href="#t" transform="matrix(1,0,0,1,903.6440160361711,814.0474153943173) translate(24.574999999999996 30.9625)"/><path d="M1428.1 809.05c-9.24 0-16.72 13.9-16.72 31.05 0 17.16 7.48 31.06 16.7 31.06H1277.73c-9.23 0-16.7-13.9-16.7-31.06 0-17.15 7.47-31.05 16.7-31.05z" stroke="#3d4752" stroke-width="2" fill="#3e5778"/><use xlink:href="#t" transform="matrix(1,0,0,1,1266.010713575026,814.0474153943173) translate(24.574999999999996 30.9625)"/><path d="M1557.95 779.65c16.57 0 30 13.43 30 30v60.9c0 16.58-13.43 30-30 30H465.6c-16.56 0-30-13.42-30-30v-60.9c0-16.57 13.44-30 30-30z" stroke="#3d4752" stroke-width="2" fill-opacity="0"/><path d="M1094.25 664.73c-12.38 0-22.4 13.9-22.4 31.06 0 17.14 10.02 31.05 22.4 31.05H892.53c-12.38 0-22.42-13.9-22.42-31.06 0-17.16 10.05-31.07 22.43-31.07z" stroke="#3d4752" stroke-width="2" fill="#3e5778"/><use xlink:href="#u" transform="matrix(1,0,0,1,875.1119095312475,669.7343063630223) translate(68.55 30.9625)"/><path d="M1535.88 638.85c16.57 0 30 13.43 30 30v53.88c0 16.57-13.43 30-30 30H465.6c-16.56 0-30-13.43-30-30v-53.88c0-16.57 13.44-30 30-30z" stroke="#3d4752" stroke-width="2" fill-opacity="0"/><path d="M181.03 1188.07h264.8v62.1h-264.8z" stroke="#000" stroke-opacity="0" stroke-width="2" fill="#fff" fill-opacity="0"/><use xlink:href="#v" transform="matrix(1,0,0,1,186.0337756505055,1193.0652836310492) translate(86.2 30.9625)"/><use xlink:href="#w" transform="matrix(1,0,0,1,186.0337756505055,1193.0652836310492) translate(128.15 30.9625)"/><path d="M688.65 840.1h39v83.65h-70.72v21.5" stroke="#404853" stroke-width="2" fill="none"/><path d="M688.67 841.1h-.94l-.08-1 .06-1h.97z" fill="#404853"/><path d="M656.93 960.5l-4.63-14.25h9.27z" stroke="#404853" stroke-width="2" fill="#404853"/><path d="M1051.02 840.1h39V923h-63.08v21.5" stroke="#404853" stroke-width="2" fill="none"/><path d="M1051.04 841.1h-.95l-.08-1 .05-1h.97z" fill="#404853"/><path d="M1026.94 959.77l-4.64-14.26h9.27z" stroke="#404853" stroke-width="2" fill="#404853"/><path d="M1413.38 840.1h39v81.43h-69.68v21.5" stroke="#404853" stroke-width="2" fill="none"/><path d="M1413.4 841.1h-.94l-.08-1 .06-1h.97z" fill="#404853"/><path d="M1382.7 958.3l-4.63-14.27h9.27z" stroke="#404853" stroke-width="2" fill="#404853"/><defs><path fill="#fff" d="M232-93c-1 65-40 97-104 97C67 4 28-28 28-90v-158h33c8 89-33 224 67 224 102 0 64-133 71-224h33v155" id="x"/><path fill="#fff" d="M135-143c-3-34-86-38-87 0 15 53 115 12 119 90S17 21 10-45l28-5c4 36 97 45 98 0-10-56-113-15-118-90-4-57 82-63 122-42 12 7 21 19 24 35" id="y"/><path fill="#fff" d="M100-194c63 0 86 42 84 106H49c0 40 14 67 53 68 26 1 43-12 49-29l28 8c-11 28-37 45-77 45C44 4 14-33 15-96c1-61 26-98 85-98zm52 81c6-60-76-77-97-28-3 7-6 17-6 28h103" id="z"/><path fill="#fff" d="M114-163C36-179 61-72 57 0H25l-1-190h30c1 12-1 29 2 39 6-27 23-49 58-41v29" id="A"/><g id="a"><use transform="matrix(0.05,0,0,0.05,0,0)" xlink:href="#x"/><use transform="matrix(0.05,0,0,0.05,12.950000000000001,0)" xlink:href="#y"/><use transform="matrix(0.05,0,0,0.05,21.950000000000003,0)" xlink:href="#z"/><use transform="matrix(0.05,0,0,0.05,31.950000000000003,0)" xlink:href="#A"/></g><path fill="#fff" d="M205 0l-28-72H64L36 0H1l101-248h38L239 0h-34zm-38-99l-47-123c-12 45-31 82-46 123h93" id="B"/><path fill="#fff" d="M115-194c55 1 70 41 70 98S169 2 115 4C84 4 66-9 55-30l1 105H24l-1-265h31l2 30c10-21 28-34 59-34zm-8 174c40 0 45-34 45-75s-6-73-45-74c-42 0-51 32-51 76 0 43 10 73 51 73" id="C"/><path fill="#fff" d="M143 4C61 4 22-44 18-125c-5-107 100-154 193-111 17 8 29 25 37 43l-32 9c-13-25-37-40-76-40-61 0-88 39-88 99 0 61 29 100 91 101 35 0 62-11 79-27v-45h-74v-28h105v86C228-13 192 4 143 4" id="D"/><path fill="#fff" d="M24-231v-30h32v30H24zM24 0v-190h32V0H24" id="E"/><path fill="#fff" d="M85-194c31 0 48 13 60 33l-1-100h32l1 261h-30c-2-10 0-23-3-31C134-8 116 4 85 4 32 4 16-35 15-94c0-66 23-100 70-100zm9 24c-40 0-46 34-46 75 0 40 6 74 45 74 42 0 51-32 51-76 0-42-9-74-50-73" id="F"/><g id="b"><use transform="matrix(0.05,0,0,0.05,0,0)" xlink:href="#B"/><use transform="matrix(0.05,0,0,0.05,12,0)" xlink:href="#C"/><use transform="matrix(0.05,0,0,0.05,22,0)" xlink:href="#C"/><use transform="matrix(0.05,0,0,0.05,32,0)" xlink:href="#D"/><use transform="matrix(0.05,0,0,0.05,46,0)" xlink:href="#A"/><use transform="matrix(0.05,0,0,0.05,51.95,0)" xlink:href="#E"/><use transform="matrix(0.05,0,0,0.05,55.900000000000006,0)" xlink:href="#F"/></g><path fill="#fff" d="M212-179c-10-28-35-45-73-45-59 0-87 40-87 99 0 60 29 101 89 101 43 0 62-24 78-52l27 14C228-24 195 4 139 4 59 4 22-46 18-125c-6-104 99-153 187-111 19 9 31 26 39 46" id="G"/><path fill="#fff" d="M100-194c62-1 85 37 85 99 1 63-27 99-86 99S16-35 15-95c0-66 28-99 85-99zM99-20c44 1 53-31 53-75 0-43-8-75-51-75s-53 32-53 75 10 74 51 75" id="H"/><path fill="#fff" d="M117-194c89-4 53 116 60 194h-32v-121c0-31-8-49-39-48C34-167 62-67 57 0H25l-1-190h30c1 10-1 24 2 32 11-22 29-35 61-36" id="I"/><path fill="#fff" d="M59-47c-2 24 18 29 38 22v24C64 9 27 4 27-40v-127H5v-23h24l9-43h21v43h35v23H59v120" id="J"/><path fill="#fff" d="M24 0v-261h32V0H24" id="K"/><g id="c"><use transform="matrix(0.05,0,0,0.05,0,0)" xlink:href="#G"/><use transform="matrix(0.05,0,0,0.05,12.950000000000001,0)" xlink:href="#H"/><use transform="matrix(0.05,0,0,0.05,22.950000000000003,0)" xlink:href="#I"/><use transform="matrix(0.05,0,0,0.05,32.95,0)" xlink:href="#J"/><use transform="matrix(0.05,0,0,0.05,37.95,0)" xlink:href="#A"/><use transform="matrix(0.05,0,0,0.05,43.900000000000006,0)" xlink:href="#H"/><use transform="matrix(0.05,0,0,0.05,53.900000000000006,0)" xlink:href="#K"/><use transform="matrix(0.05,0,0,0.05,57.85,0)" xlink:href="#K"/><use transform="matrix(0.05,0,0,0.05,61.80000000000001,0)" xlink:href="#z"/><use transform="matrix(0.05,0,0,0.05,71.80000000000001,0)" xlink:href="#A"/></g><path fill="#fff" d="M108 0H70L1-190h34L89-25l56-165h34" id="L"/><g id="d"><use transform="matrix(0.05,0,0,0.05,0,0)" xlink:href="#B"/><use transform="matrix(0.05,0,0,0.05,12,0)" xlink:href="#C"/><use transform="matrix(0.05,0,0,0.05,22,0)" xlink:href="#E"/><use transform="matrix(0.05,0,0,0.05,25.950000000000003,0)" xlink:href="#y"/><use transform="matrix(0.05,0,0,0.05,34.95,0)" xlink:href="#z"/><use transform="matrix(0.05,0,0,0.05,44.95,0)" xlink:href="#A"/><use transform="matrix(0.05,0,0,0.05,50.900000000000006,0)" xlink:href="#L"/><use transform="matrix(0.05,0,0,0.05,59.900000000000006,0)" xlink:href="#z"/><use transform="matrix(0.05,0,0,0.05,69.9,0)" xlink:href="#A"/></g><path fill="#fff" d="M206 0h-36l-40-164L89 0H53L-1-190h32L70-26l43-164h34l41 164 42-164h31" id="M"/><path fill="#fff" d="M141-36C126-15 110 5 73 4 37 3 15-17 15-53c-1-64 63-63 125-63 3-35-9-54-41-54-24 1-41 7-42 31l-33-3c5-37 33-52 76-52 45 0 72 20 72 64v82c-1 20 7 32 28 27v20c-31 9-61-2-59-35zM48-53c0 20 12 33 32 33 41-3 63-29 60-74-43 2-92-5-92 41" id="N"/><path fill="#fff" d="M96-169c-40 0-48 33-48 73s9 75 48 75c24 0 41-14 43-38l32 2c-6 37-31 61-74 61-59 0-76-41-82-99-10-93 101-131 147-64 4 7 5 14 7 22l-32 3c-4-21-16-35-41-35" id="O"/><path fill="#fff" d="M106-169C34-169 62-67 57 0H25v-261h32l-1 103c12-21 28-36 61-36 89 0 53 116 60 194h-32v-121c2-32-8-49-39-48" id="P"/><g id="e"><use transform="matrix(0.05,0,0,0.05,0,0)" xlink:href="#M"/><use transform="matrix(0.05,0,0,0.05,12.950000000000001,0)" xlink:href="#N"/><use transform="matrix(0.05,0,0,0.05,22.950000000000003,0)" xlink:href="#J"/><use transform="matrix(0.05,0,0,0.05,27.950000000000003,0)" xlink:href="#O"/><use transform="matrix(0.05,0,0,0.05,36.95,0)" xlink:href="#P"/></g><path fill="#fff" d="M233-177c-1 41-23 64-60 70L243 0h-38l-65-103H63V0H30v-248c88 3 205-21 203 71zM63-129c60-2 137 13 137-47 0-61-80-42-137-45v92" id="Q"/><path fill="#fff" d="M30-248c118-7 216 8 213 122C240-48 200 0 122 0H30v-248zM63-27c89 8 146-16 146-99s-60-101-146-95v194" id="R"/><g id="f"><use transform="matrix(0.05,0,0,0.05,0,0)" xlink:href="#G"/><use transform="matrix(0.05,0,0,0.05,12.950000000000001,0)" xlink:href="#Q"/><use transform="matrix(0.05,0,0,0.05,25.900000000000002,0)" xlink:href="#R"/></g><path fill="#fff" d="M115-194c53 0 69 39 70 98 0 66-23 100-70 100C84 3 66-7 56-30L54 0H23l1-261h32v101c10-23 28-34 59-34zm-8 174c40 0 45-34 45-75 0-40-5-75-45-74-42 0-51 32-51 76 0 43 10 73 51 73" id="S"/><path fill="#fff" d="M24-231v-30h32v30H24zM-9 49c24 4 33-6 33-30v-209h32V24c2 40-23 58-65 49V49" id="T"/><g id="g"><use transform="matrix(0.05,0,0,0.05,0,0)" xlink:href="#H"/><use transform="matrix(0.05,0,0,0.05,10,0)" xlink:href="#S"/><use transform="matrix(0.05,0,0,0.05,20,0)" xlink:href="#T"/><use transform="matrix(0.05,0,0,0.05,23.95,0)" xlink:href="#z"/><use transform="matrix(0.05,0,0,0.05,33.95,0)" xlink:href="#O"/><use transform="matrix(0.05,0,0,0.05,42.95,0)" xlink:href="#J"/><use transform="matrix(0.05,0,0,0.05,47.95,0)" xlink:href="#y"/></g><path fill="#fff" d="M179-190L93 31C79 59 56 82 12 73V49c39 6 53-20 64-50L1-190h34L92-34l54-156h33" id="U"/><path fill="#fff" d="M210-169c-67 3-38 105-44 169h-31v-121c0-29-5-50-35-48C34-165 62-65 56 0H25l-1-190h30c1 10-1 24 2 32 10-44 99-50 107 0 11-21 27-35 58-36 85-2 47 119 55 194h-31v-121c0-29-5-49-35-48" id="V"/><g id="h"><use transform="matrix(0.05,0,0,0.05,0,0)" xlink:href="#R"/><use transform="matrix(0.05,0,0,0.05,12.950000000000001,0)" xlink:href="#z"/><use transform="matrix(0.05,0,0,0.05,22.950000000000003,0)" xlink:href="#C"/><use transform="matrix(0.05,0,0,0.05,32.95,0)" xlink:href="#K"/><use transform="matrix(0.05,0,0,0.05,36.900000000000006,0)" xlink:href="#H"/><use transform="matrix(0.05,0,0,0.05,46.900000000000006,0)" xlink:href="#U"/><use transform="matrix(0.05,0,0,0.05,55.900000000000006,0)" xlink:href="#V"/><use transform="matrix(0.05,0,0,0.05,70.85000000000001,0)" xlink:href="#z"/><use transform="matrix(0.05,0,0,0.05,80.85000000000001,0)" xlink:href="#I"/><use transform="matrix(0.05,0,0,0.05,90.85000000000001,0)" xlink:href="#J"/><use transform="matrix(0.05,0,0,0.05,95.85000000000001,0)" xlink:href="#D"/><use transform="matrix(0.05,0,0,0.05,109.85000000000001,0)" xlink:href="#A"/><use transform="matrix(0.05,0,0,0.05,115.80000000000001,0)" xlink:href="#E"/><use transform="matrix(0.05,0,0,0.05,119.75,0)" xlink:href="#F"/></g><path fill="#fff" d="M185-189c-5-48-123-54-124 2 14 75 158 14 163 119 3 78-121 87-175 55-17-10-28-26-33-46l33-7c5 56 141 63 141-1 0-78-155-14-162-118-5-82 145-84 179-34 5 7 8 16 11 25" id="W"/><g id="i"><use transform="matrix(0.05,0,0,0.05,0,0)" xlink:href="#W"/><use transform="matrix(0.05,0,0,0.05,12,0)" xlink:href="#z"/><use transform="matrix(0.05,0,0,0.05,22,0)" xlink:href="#A"/><use transform="matrix(0.05,0,0,0.05,27.950000000000003,0)" xlink:href="#L"/><use transform="matrix(0.05,0,0,0.05,36.95,0)" xlink:href="#E"/><use transform="matrix(0.05,0,0,0.05,40.900000000000006,0)" xlink:href="#O"/><use transform="matrix(0.05,0,0,0.05,49.900000000000006,0)" xlink:href="#z"/><use transform="matrix(0.05,0,0,0.05,59.900000000000006,0)" xlink:href="#D"/><use transform="matrix(0.05,0,0,0.05,73.9,0)" xlink:href="#A"/><use transform="matrix(0.05,0,0,0.05,79.85000000000001,0)" xlink:href="#E"/><use transform="matrix(0.05,0,0,0.05,83.80000000000001,0)" xlink:href="#F"/></g><g id="j"><use transform="matrix(0.05,0,0,0.05,0,0)" xlink:href="#O"/><use transform="matrix(0.05,0,0,0.05,9,0)" xlink:href="#H"/><use transform="matrix(0.05,0,0,0.05,19,0)" xlink:href="#I"/><use transform="matrix(0.05,0,0,0.05,29,0)" xlink:href="#J"/><use transform="matrix(0.05,0,0,0.05,34,0)" xlink:href="#A"/><use transform="matrix(0.05,0,0,0.05,39.95,0)" xlink:href="#H"/><use transform="matrix(0.05,0,0,0.05,49.95,0)" xlink:href="#K"/><use transform="matrix(0.05,0,0,0.05,53.900000000000006,0)" xlink:href="#K"/></g><g id="k"><use transform="matrix(0.05,0,0,0.05,0,0)" xlink:href="#G"/><use transform="matrix(0.05,0,0,0.05,12.950000000000001,0)" xlink:href="#Q"/><use transform="matrix(0.05,0,0,0.05,25.900000000000002,0)" xlink:href="#R"/></g><path fill="#fff" d="M140-251c81 0 123 46 123 126C263-46 219 4 140 4 59 4 17-45 17-125s42-126 123-126zm0 227c63 0 89-41 89-101s-29-99-89-99c-61 0-89 39-89 99S79-25 140-24" id="X"/><g id="l"><use transform="matrix(0.05,0,0,0.05,0,0)" xlink:href="#X"/><use transform="matrix(0.05,0,0,0.05,14,0)" xlink:href="#S"/><use transform="matrix(0.05,0,0,0.05,24,0)" xlink:href="#T"/><use transform="matrix(0.05,0,0,0.05,27.950000000000003,0)" xlink:href="#z"/><use transform="matrix(0.05,0,0,0.05,37.95,0)" xlink:href="#O"/><use transform="matrix(0.05,0,0,0.05,46.95,0)" xlink:href="#J"/><use transform="matrix(0.05,0,0,0.05,51.95,0)" xlink:href="#y"/></g><path fill="#fff" d="M190 0L58-211 59 0H30v-248h39L202-35l-2-213h31V0h-41" id="Y"/><g id="m"><use transform="matrix(0.05,0,0,0.05,0,0)" xlink:href="#Y"/><use transform="matrix(0.05,0,0,0.05,12.950000000000001,0)" xlink:href="#H"/><use transform="matrix(0.05,0,0,0.05,22.950000000000003,0)" xlink:href="#F"/><use transform="matrix(0.05,0,0,0.05,32.95,0)" xlink:href="#z"/></g><g id="n"><use transform="matrix(0.05,0,0,0.05,0,0)" xlink:href="#D"/><use transform="matrix(0.05,0,0,0.05,14,0)" xlink:href="#A"/><use transform="matrix(0.05,0,0,0.05,19.95,0)" xlink:href="#E"/><use transform="matrix(0.05,0,0,0.05,23.9,0)" xlink:href="#F"/></g><path fill="#fff" d="M27 0v-27h64v-190l-56 39v-29l58-41h29v221h61V0H27" id="Z"/><use transform="matrix(0.05,0,0,0.05,0,0)" xlink:href="#Z" id="o"/><g id="p"><use transform="matrix(0.05,0,0,0.05,0,0)" xlink:href="#Y"/><use transform="matrix(0.05,0,0,0.05,12.950000000000001,0)" xlink:href="#H"/><use transform="matrix(0.05,0,0,0.05,22.950000000000003,0)" xlink:href="#F"/><use transform="matrix(0.05,0,0,0.05,32.95,0)" xlink:href="#z"/></g><g id="q"><use transform="matrix(0.05,0,0,0.05,0,0)" xlink:href="#D"/><use transform="matrix(0.05,0,0,0.05,14,0)" xlink:href="#A"/><use transform="matrix(0.05,0,0,0.05,19.95,0)" xlink:href="#E"/><use transform="matrix(0.05,0,0,0.05,23.9,0)" xlink:href="#F"/></g><path fill="#fff" d="M101-251c82-7 93 87 43 132L82-64C71-53 59-42 53-27h129V0H18c2-99 128-94 128-182 0-28-16-43-45-43s-46 15-49 41l-32-3c6-41 34-60 81-64" id="aa"/><use transform="matrix(0.05,0,0,0.05,0,0)" xlink:href="#aa" id="r"/><path fill="#fff" d="M126-127c33 6 58 20 58 59 0 88-139 92-164 29-3-8-5-16-6-25l32-3c6 27 21 44 54 44 32 0 52-15 52-46 0-38-36-46-79-43v-28c39 1 72-4 72-42 0-27-17-43-46-43-28 0-47 15-49 41l-32-3c6-42 35-63 81-64 48-1 79 21 79 65 0 36-21 52-52 59" id="ab"/><use transform="matrix(0.05,0,0,0.05,0,0)" xlink:href="#ab" id="s"/><g id="t"><use transform="matrix(0.05,0,0,0.05,0,0)" xlink:href="#R"/><use transform="matrix(0.05,0,0,0.05,12.950000000000001,0)" xlink:href="#z"/><use transform="matrix(0.05,0,0,0.05,22.950000000000003,0)" xlink:href="#C"/><use transform="matrix(0.05,0,0,0.05,32.95,0)" xlink:href="#K"/><use transform="matrix(0.05,0,0,0.05,36.900000000000006,0)" xlink:href="#H"/><use transform="matrix(0.05,0,0,0.05,46.900000000000006,0)" xlink:href="#U"/><use transform="matrix(0.05,0,0,0.05,55.900000000000006,0)" xlink:href="#V"/><use transform="matrix(0.05,0,0,0.05,70.85000000000001,0)" xlink:href="#z"/><use transform="matrix(0.05,0,0,0.05,80.85000000000001,0)" xlink:href="#I"/><use transform="matrix(0.05,0,0,0.05,90.85000000000001,0)" xlink:href="#J"/></g><g id="u"><use transform="matrix(0.05,0,0,0.05,0,0)" xlink:href="#W"/><use transform="matrix(0.05,0,0,0.05,12,0)" xlink:href="#z"/><use transform="matrix(0.05,0,0,0.05,22,0)" xlink:href="#A"/><use transform="matrix(0.05,0,0,0.05,27.950000000000003,0)" xlink:href="#L"/><use transform="matrix(0.05,0,0,0.05,36.95,0)" xlink:href="#E"/><use transform="matrix(0.05,0,0,0.05,40.900000000000006,0)" xlink:href="#O"/><use transform="matrix(0.05,0,0,0.05,49.900000000000006,0)" xlink:href="#z"/></g><path fill="#ef8d22" d="M67-125c0 54 23 88 75 88 28 0 53-7 68-21v-34h-60v-39h108v91C232-14 192 4 140 4 58 4 20-42 15-125 8-236 126-280 215-234c19 10 29 26 37 47l-47 15c-11-23-29-39-63-39-53 1-75 33-75 86" id="ac"/><path fill="#ef8d22" d="M135-150c-39-12-60 13-60 57V0H25l-1-190h47c2 13-1 29 3 40 6-28 27-53 61-41v41" id="ad"/><path fill="#ef8d22" d="M25-224v-37h50v37H25zM25 0v-190h50V0H25" id="ae"/><path fill="#ef8d22" d="M88-194c31-1 46 15 58 34l-1-101h50l1 261h-48c-2-10 0-23-3-31C134-8 116 4 84 4 32 4 16-41 15-95c0-56 19-97 73-99zm17 164c33 0 40-30 41-66 1-37-9-64-41-64s-38 30-39 65c0 43 13 65 39 65" id="af"/><g id="v"><use transform="matrix(0.05,0,0,0.05,0,0)" xlink:href="#ac"/><use transform="matrix(0.05,0,0,0.05,14,0)" xlink:href="#ad"/><use transform="matrix(0.05,0,0,0.05,21,0)" xlink:href="#ae"/><use transform="matrix(0.05,0,0,0.05,26,0)" xlink:href="#af"/></g><path fill="#ef8d22" d="M147 0H94L2-248h55l64 206c17-72 42-137 63-206h54" id="ag"/><path fill="#ef8d22" d="M185-48c-13 30-37 53-82 52C43 2 14-33 14-96s30-98 90-98c62 0 83 45 84 108H66c0 31 8 55 39 56 18 0 30-7 34-22zm-45-69c5-46-57-63-70-21-2 6-4 13-4 21h74" id="ah"/><path fill="#ef8d22" d="M231 0h-52l-39-155L100 0H48L-1-190h46L77-45c9-52 24-97 36-145h53l37 145 32-145h46" id="ai"/><g id="w"><use transform="matrix(0.05,0,0,0.05,0,0)" xlink:href="#ag"/><use transform="matrix(0.05,0,0,0.05,11.65,0)" xlink:href="#ae"/><use transform="matrix(0.05,0,0,0.05,16.65,0)" xlink:href="#ah"/><use transform="matrix(0.05,0,0,0.05,26.649999999999995,0)" xlink:href="#ai"/></g></defs></g></svg>