<svg xmlns="http://www.w3.org/2000/svg" xmlns:xlink="http://www.w3.org/1999/xlink" xmlns:lucid="lucid" width="1240" height="682"><g transform="translate(-60 -49)" lucid:page-tab-id="0_0"><path d="M0 0h1870.4v1323.2H0z" fill="#4384ae"/><path d="M880 61v658M880 61.03V60M880 718.97V720" stroke="#404853" stroke-width="2" fill="none"/><path d="M280 120h240v60H280z" stroke="#3d4752" stroke-width="2" fill="#3e5778"/><use xlink:href="#a" transform="matrix(1,0,0,1,285,125) translate(71.57499999999999 30.025)"/><use xlink:href="#b" transform="matrix(1,0,0,1,285,125) translate(120.475 30.025)"/><path d="M1040 120h240v60h-240z" stroke="#3d4752" stroke-width="2" fill="#3e5778"/><use xlink:href="#c" transform="matrix(1,0,0,1,1045,125) translate(68.125 30.025)"/><use xlink:href="#b" transform="matrix(1,0,0,1,1045,125) translate(123.92500000000001 30.025)"/><path d="M518 402.67H359.5" stroke="#404853" stroke-width="2" fill="none"/><path d="M519 403.67h-1.03v-2H519z" fill="#404853"/><path d="M344.24 402.67l14.26-4.64v9.27z" stroke="#404853" stroke-width="2" fill="#404853"/><path d="M1038 402.67H819.5" stroke="#404853" stroke-width="2" fill="none"/><path d="M1039 403.67h-1.03v-2h1.03z" fill="#404853"/><path d="M804.24 402.67l14.26-4.64v9.27z" stroke="#404853" stroke-width="2" fill="#404853"/><path d="M600 558V439.5" stroke="#404853" stroke-width="2" fill="none"/><path d="M601 559h-2v-1.03h2z" fill="#404853"/><path d="M600 424.24l4.64 14.26h-9.28z" stroke="#404853" stroke-width="2" fill="#404853"/><path d="M650 460h240v60H650z" stroke="#000" stroke-opacity="0" stroke-width="2" fill="#fff" fill-opacity="0"/><use xlink:href="#d" transform="matrix(1,0,0,1,655,465) translate(53.599999999999994 30.025)"/><use xlink:href="#e" transform="matrix(1,0,0,1,655,465) translate(102.44999999999999 30.025)"/><path d="M310 280h240v60H310z" stroke="#000" stroke-opacity="0" stroke-width="2" fill="#fff" fill-opacity="0"/><use xlink:href="#d" transform="matrix(1,0,0,1,315,285) translate(60.599999999999994 30.025)"/><use xlink:href="#f" transform="matrix(1,0,0,1,315,285) translate(109.44999999999999 30.025)"/><path d="M785.2 280h240v60h-240z" stroke="#000" stroke-opacity="0" stroke-width="2" fill="#fff" fill-opacity="0"/><use xlink:href="#d" transform="matrix(1,0,0,1,790.1999999999999,285) translate(60.599999999999994 30.025)"/><use xlink:href="#f" transform="matrix(1,0,0,1,790.1999999999999,285) translate(109.44999999999999 30.025)"/><path d="M80 320h260v100H80z" stroke="#3d4752" stroke-width="2" fill="#3e5778"/><use xlink:href="#g" transform="matrix(1,0,0,1,85,325) translate(80.55 48.15)"/><path d="M520 320h280v100H520z" stroke="#3d4752" stroke-width="2" fill="#3e5778"/><use xlink:href="#h" transform="matrix(1,0,0,1,525,325) translate(89.125 48.15)"/><path d="M1040 320h220v100h-220z" stroke="#3d4752" stroke-width="2" fill="#3e5778"/><use xlink:href="#i" transform="matrix(1,0,0,1,1045,325) translate(45.599999999999994 48.15)"/><path d="M540 560h240v100H540z" stroke="#3d4752" stroke-width="2" fill="#3e5778"/><path d="M564 560v100m192-100v100" stroke="#3d4752" stroke-width="2" fill="none"/><use xlink:href="#j" transform="matrix(1,0,0,1,575,565) translate(43.625 48.6)"/><use xlink:href="#k" transform="matrix(1,0,0,1,575,565) translate(88.42500000000001 48.6)"/><path d="M800 400h240v60H800z" stroke="#000" stroke-opacity="0" stroke-width="2" fill="#fff" fill-opacity="0"/><use xlink:href="#d" transform="matrix(1,0,0,1,805,405) translate(53.599999999999994 30.025)"/><use xlink:href="#e" transform="matrix(1,0,0,1,805,405) translate(102.44999999999999 30.025)"/><path d="M342 345.33h158.5" stroke="#404853" stroke-width="2" fill="none"/><path d="M342.03 346.33H341v-2h1.03z" fill="#404853"/><path d="M515.76 345.33l-14.26 4.64v-9.27z" stroke="#404853" stroke-width="2" fill="#404853"/><path d="M802 354.67h218.5" stroke="#404853" stroke-width="2" fill="none"/><path d="M802.03 355.67H801v-2h1.03z" fill="#404853"/><path d="M1035.76 354.67l-14.26 4.63v-9.27z" stroke="#404853" stroke-width="2" fill="#404853"/><path d="M682.67 422v118.5" stroke="#404853" stroke-width="2" fill="none"/><path d="M683.67 422.03h-2V421h2z" fill="#404853"/><path d="M682.67 555.76l-4.64-14.26h9.27z" stroke="#404853" stroke-width="2" fill="#404853"/><path d="M380 460h240v60H380z" stroke="#000" stroke-opacity="0" stroke-width="2" fill="#fff" fill-opacity="0"/><g><use xlink:href="#l" transform="matrix(1,0,0,1,385,465) translate(48.599999999999994 30.025)"/><use xlink:href="#e" transform="matrix(1,0,0,1,385,465) translate(107.44999999999999 30.025)"/></g><path d="M320 400h240v60H320z" stroke="#000" stroke-opacity="0" stroke-width="2" fill="#fff" fill-opacity="0"/><g><use xlink:href="#l" transform="matrix(1,0,0,1,325,405) translate(48.599999999999994 30.025)"/><use xlink:href="#e" transform="matrix(1,0,0,1,325,405) translate(107.44999999999999 30.025)"/></g><defs><path fill="#fff" d="M24 0v-248h195v40H76v63h132v40H76v65h150V0H24" id="m"/><path fill="#fff" d="M88-194c31-1 46 15 58 34l-1-101h50l1 261h-48c-2-10 0-23-3-31C134-8 116 4 84 4 32 4 16-41 15-95c0-56 19-97 73-99zm17 164c33 0 40-30 41-66 1-37-9-64-41-64s-38 30-39 65c0 43 13 65 39 65" id="n"/><path fill="#fff" d="M195-6C206 82 75 100 31 46c-4-6-6-13-8-21l49-6c3 16 16 24 34 25 40 0 42-37 40-79-11 22-30 35-61 35-53 0-70-43-70-97 0-56 18-96 73-97 30 0 46 14 59 34l2-30h47zm-90-29c32 0 41-27 41-63 0-35-9-62-40-62-32 0-39 29-40 63 0 36 9 62 39 62" id="o"/><path fill="#fff" d="M185-48c-13 30-37 53-82 52C43 2 14-33 14-96s30-98 90-98c62 0 83 45 84 108H66c0 31 8 55 39 56 18 0 30-7 34-22zm-45-69c5-46-57-63-70-21-2 6-4 13-4 21h74" id="p"/><g id="a"><use transform="matrix(0.05,0,0,0.05,0,0)" xlink:href="#m"/><use transform="matrix(0.05,0,0,0.05,12,0)" xlink:href="#n"/><use transform="matrix(0.05,0,0,0.05,22.950000000000003,0)" xlink:href="#o"/><use transform="matrix(0.05,0,0,0.05,33.900000000000006,0)" xlink:href="#p"/></g><path fill="#fff" d="M169-182c-1-43-94-46-97-3 18 66 151 10 154 114 3 95-165 93-204 36-6-8-10-19-12-30l50-8c3 46 112 56 116 5-17-69-150-10-154-114-4-87 153-88 188-35 5 8 8 18 10 28" id="q"/><path fill="#fff" d="M25-224v-37h50v37H25zM25 0v-190h50V0H25" id="r"/><g id="b"><use transform="matrix(0.05,0,0,0.05,0,0)" xlink:href="#q"/><use transform="matrix(0.05,0,0,0.05,12,0)" xlink:href="#r"/><use transform="matrix(0.05,0,0,0.05,17,0)" xlink:href="#n"/><use transform="matrix(0.05,0,0,0.05,27.950000000000003,0)" xlink:href="#p"/></g><path fill="#fff" d="M67-125c0 53 21 87 73 88 37 1 54-22 65-47l45 17C233-25 199 4 140 4 58 4 20-42 15-125 8-235 124-281 211-232c18 10 29 29 36 50l-46 12c-8-25-30-41-62-41-52 0-71 34-72 86" id="s"/><path fill="#fff" d="M25 0v-261h50V0H25" id="t"/><path fill="#fff" d="M110-194c64 0 96 36 96 99 0 64-35 99-97 99-61 0-95-36-95-99 0-62 34-99 96-99zm-1 164c35 0 45-28 45-65 0-40-10-65-43-65-34 0-45 26-45 65 0 36 10 65 43 65" id="u"/><path fill="#fff" d="M85 4C-2 5 27-109 22-190h50c7 57-23 150 33 157 60-5 35-97 40-157h50l1 190h-47c-2-12 1-28-3-38-12 25-28 42-61 42" id="v"/><g id="c"><use transform="matrix(0.05,0,0,0.05,0,0)" xlink:href="#s"/><use transform="matrix(0.05,0,0,0.05,12.950000000000001,0)" xlink:href="#t"/><use transform="matrix(0.05,0,0,0.05,17.950000000000003,0)" xlink:href="#u"/><use transform="matrix(0.05,0,0,0.05,28.900000000000006,0)" xlink:href="#v"/><use transform="matrix(0.05,0,0,0.05,39.85000000000001,0)" xlink:href="#n"/></g><path fill="#fff" d="M100-194c62-1 85 37 85 99 1 63-27 99-86 99S16-35 15-95c0-66 28-99 85-99zM99-20c44 1 53-31 53-75 0-43-8-75-51-75s-53 32-53 75 10 74 51 75" id="w"/><path fill="#fff" d="M114-163C36-179 61-72 57 0H25l-1-190h30c1 12-1 29 2 39 6-27 23-49 58-41v29" id="x"/><path fill="#fff" d="M24-231v-30h32v30H24zM24 0v-190h32V0H24" id="y"/><path fill="#fff" d="M177-190C167-65 218 103 67 71c-23-6-38-20-44-43l32-5c15 47 100 32 89-28v-30C133-14 115 1 83 1 29 1 15-40 15-95c0-56 16-97 71-98 29-1 48 16 59 35 1-10 0-23 2-32h30zM94-22c36 0 50-32 50-73 0-42-14-75-50-75-39 0-46 34-46 75s6 73 46 73" id="z"/><path fill="#fff" d="M117-194c89-4 53 116 60 194h-32v-121c0-31-8-49-39-48C34-167 62-67 57 0H25l-1-190h30c1 10-1 24 2 32 11-22 29-35 61-36" id="A"/><g id="d"><use transform="matrix(0.05,0,0,0.05,0,0)" xlink:href="#w"/><use transform="matrix(0.05,0,0,0.05,10,0)" xlink:href="#x"/><use transform="matrix(0.05,0,0,0.05,15.949999999999998,0)" xlink:href="#y"/><use transform="matrix(0.05,0,0,0.05,19.9,0)" xlink:href="#z"/><use transform="matrix(0.05,0,0,0.05,29.899999999999995,0)" xlink:href="#y"/><use transform="matrix(0.05,0,0,0.05,33.85,0)" xlink:href="#A"/></g><path fill="#fff" d="M100-194c63 0 86 42 84 106H49c0 40 14 67 53 68 26 1 43-12 49-29l28 8c-11 28-37 45-77 45C44 4 14-33 15-96c1-61 26-98 85-98zm52 81c6-60-76-77-97-28-3 7-6 17-6 28h103" id="B"/><path fill="#fff" d="M135-143c-3-34-86-38-87 0 15 53 115 12 119 90S17 21 10-45l28-5c4 36 97 45 98 0-10-56-113-15-118-90-4-57 82-63 122-42 12 7 21 19 24 35" id="C"/><path fill="#fff" d="M115-194c55 1 70 41 70 98S169 2 115 4C84 4 66-9 55-30l1 105H24l-1-265h31l2 30c10-21 28-34 59-34zm-8 174c40 0 45-34 45-75s-6-73-45-74c-42 0-51 32-51 76 0 43 10 73 51 73" id="D"/><g id="e"><use transform="matrix(0.05,0,0,0.05,0,0)" xlink:href="#x"/><use transform="matrix(0.05,0,0,0.05,5.95,0)" xlink:href="#B"/><use transform="matrix(0.05,0,0,0.05,15.949999999999998,0)" xlink:href="#C"/><use transform="matrix(0.05,0,0,0.05,24.95,0)" xlink:href="#D"/><use transform="matrix(0.05,0,0,0.05,34.95,0)" xlink:href="#w"/><use transform="matrix(0.05,0,0,0.05,44.95,0)" xlink:href="#A"/><use transform="matrix(0.05,0,0,0.05,54.95,0)" xlink:href="#C"/><use transform="matrix(0.05,0,0,0.05,63.95,0)" xlink:href="#B"/></g><path fill="#fff" d="M145-31C134-9 116 4 85 4 32 4 16-35 15-94c0-59 17-99 70-100 32-1 48 14 60 33 0-11-1-24 2-32h30l-1 268h-32zM93-21c41 0 51-33 51-76s-8-73-50-73c-40 0-46 35-46 75s5 74 45 74" id="E"/><path fill="#fff" d="M84 4C-5 8 30-112 23-190h32v120c0 31 7 50 39 49 72-2 45-101 50-169h31l1 190h-30c-1-10 1-25-2-33-11 22-28 36-60 37" id="F"/><path fill="#fff" d="M59-47c-2 24 18 29 38 22v24C64 9 27 4 27-40v-127H5v-23h24l9-43h21v43h35v23H59v120" id="G"/><g id="f"><use transform="matrix(0.05,0,0,0.05,0,0)" xlink:href="#x"/><use transform="matrix(0.05,0,0,0.05,5.95,0)" xlink:href="#B"/><use transform="matrix(0.05,0,0,0.05,15.949999999999998,0)" xlink:href="#E"/><use transform="matrix(0.05,0,0,0.05,25.950000000000003,0)" xlink:href="#F"/><use transform="matrix(0.05,0,0,0.05,35.95,0)" xlink:href="#B"/><use transform="matrix(0.05,0,0,0.05,45.95,0)" xlink:href="#C"/><use transform="matrix(0.05,0,0,0.05,54.95,0)" xlink:href="#G"/></g><path fill="#fff" d="M143 0L79-87 56-68V0H24v-261h32v163l83-92h37l-77 82L181 0h-38" id="H"/><path fill="#fff" d="M115-194c53 0 69 39 70 98 0 66-23 100-70 100C84 3 66-7 56-30L54 0H23l1-261h32v101c10-23 28-34 59-34zm-8 174c40 0 45-34 45-75 0-40-5-75-45-74-42 0-51 32-51 76 0 43 10 73 51 73" id="I"/><path fill="#fff" d="M16-82v-28h88v28H16" id="J"/><path fill="#fff" d="M141 0L90-78 38 0H4l68-98-65-92h35l48 74 47-74h35l-64 92 68 98h-35" id="K"/><path fill="#fff" d="M179-190L93 31C79 59 56 82 12 73V49c39 6 53-20 64-50L1-190h34L92-34l54-156h33" id="L"/><g id="g"><use transform="matrix(0.05,0,0,0.05,0,0)" xlink:href="#H"/><use transform="matrix(0.05,0,0,0.05,9,0)" xlink:href="#F"/><use transform="matrix(0.05,0,0,0.05,19,0)" xlink:href="#I"/><use transform="matrix(0.05,0,0,0.05,29,0)" xlink:href="#B"/><use transform="matrix(0.05,0,0,0.05,39,0)" xlink:href="#J"/><use transform="matrix(0.05,0,0,0.05,44.95,0)" xlink:href="#D"/><use transform="matrix(0.05,0,0,0.05,54.95,0)" xlink:href="#x"/><use transform="matrix(0.05,0,0,0.05,60.900000000000006,0)" xlink:href="#w"/><use transform="matrix(0.05,0,0,0.05,70.9,0)" xlink:href="#K"/><use transform="matrix(0.05,0,0,0.05,79.9,0)" xlink:href="#L"/></g><path fill="#fff" d="M210-169c-67 3-38 105-44 169h-31v-121c0-29-5-50-35-48C34-165 62-65 56 0H25l-1-190h30c1 10-1 24 2 32 10-44 99-50 107 0 11-21 27-35 58-36 85-2 47 119 55 194h-31v-121c0-29-5-49-35-48" id="M"/><path fill="#fff" d="M85-194c31 0 48 13 60 33l-1-100h32l1 261h-30c-2-10 0-23-3-31C134-8 116 4 85 4 32 4 16-35 15-94c0-66 23-100 70-100zm9 24c-40 0-46 34-46 75 0 40 6 74 45 74 42 0 51-32 51-76 0-42-9-74-50-73" id="N"/><path fill="#fff" d="M24 0v-261h32V0H24" id="O"/><path fill="#fff" d="M206 0h-36l-40-164L89 0H53L-1-190h32L70-26l43-164h34l41 164 42-164h31" id="P"/><path fill="#fff" d="M141-36C126-15 110 5 73 4 37 3 15-17 15-53c-1-64 63-63 125-63 3-35-9-54-41-54-24 1-41 7-42 31l-33-3c5-37 33-52 76-52 45 0 72 20 72 64v82c-1 20 7 32 28 27v20c-31 9-61-2-59-35zM48-53c0 20 12 33 32 33 41-3 63-29 60-74-43 2-92-5-92 41" id="Q"/><g id="h"><use transform="matrix(0.05,0,0,0.05,0,0)" xlink:href="#M"/><use transform="matrix(0.05,0,0,0.05,14.950000000000001,0)" xlink:href="#y"/><use transform="matrix(0.05,0,0,0.05,18.900000000000002,0)" xlink:href="#N"/><use transform="matrix(0.05,0,0,0.05,28.900000000000002,0)" xlink:href="#N"/><use transform="matrix(0.05,0,0,0.05,38.900000000000006,0)" xlink:href="#O"/><use transform="matrix(0.05,0,0,0.05,42.85000000000001,0)" xlink:href="#B"/><use transform="matrix(0.05,0,0,0.05,52.85,0)" xlink:href="#P"/><use transform="matrix(0.05,0,0,0.05,65.80000000000001,0)" xlink:href="#Q"/><use transform="matrix(0.05,0,0,0.05,75.80000000000001,0)" xlink:href="#x"/><use transform="matrix(0.05,0,0,0.05,81.75000000000001,0)" xlink:href="#B"/></g><path fill="#fff" d="M108 0H70L1-190h34L89-25l56-165h34" id="R"/><g id="i"><use transform="matrix(0.05,0,0,0.05,0,0)" xlink:href="#H"/><use transform="matrix(0.05,0,0,0.05,9,0)" xlink:href="#F"/><use transform="matrix(0.05,0,0,0.05,19,0)" xlink:href="#I"/><use transform="matrix(0.05,0,0,0.05,29,0)" xlink:href="#B"/><use transform="matrix(0.05,0,0,0.05,39,0)" xlink:href="#J"/><use transform="matrix(0.05,0,0,0.05,44.95,0)" xlink:href="#Q"/><use transform="matrix(0.05,0,0,0.05,54.95,0)" xlink:href="#D"/><use transform="matrix(0.05,0,0,0.05,64.95,0)" xlink:href="#y"/><use transform="matrix(0.05,0,0,0.05,68.9,0)" xlink:href="#C"/><use transform="matrix(0.05,0,0,0.05,77.9,0)" xlink:href="#B"/><use transform="matrix(0.05,0,0,0.05,87.9,0)" xlink:href="#x"/><use transform="matrix(0.05,0,0,0.05,93.85000000000001,0)" xlink:href="#R"/><use transform="matrix(0.05,0,0,0.05,102.85000000000001,0)" xlink:href="#B"/><use transform="matrix(0.05,0,0,0.05,112.85000000000001,0)" xlink:href="#x"/></g><path fill="#fff" d="M63-220v92h138v28H63V0H30v-248h175v28H63" id="S"/><g id="j"><use transform="matrix(0.05,0,0,0.05,0,0)" xlink:href="#S"/><use transform="matrix(0.05,0,0,0.05,10.950000000000001,0)" xlink:href="#y"/><use transform="matrix(0.05,0,0,0.05,14.9,0)" xlink:href="#O"/><use transform="matrix(0.05,0,0,0.05,18.85,0)" xlink:href="#G"/><use transform="matrix(0.05,0,0,0.05,23.85,0)" xlink:href="#B"/><use transform="matrix(0.05,0,0,0.05,33.85,0)" xlink:href="#x"/></g><path fill="#fff" d="M30-248c118-7 216 8 213 122C240-48 200 0 122 0H30v-248zM63-27c89 8 146-16 146-99s-60-101-146-95v194" id="T"/><g id="k"><use transform="matrix(0.05,0,0,0.05,0,0)" xlink:href="#T"/><use transform="matrix(0.05,0,0,0.05,12.950000000000001,0)" xlink:href="#Q"/><use transform="matrix(0.05,0,0,0.05,22.950000000000003,0)" xlink:href="#G"/><use transform="matrix(0.05,0,0,0.05,27.950000000000003,0)" xlink:href="#Q"/></g><path fill="#fff" d="M101-234c-31-9-42 10-38 44h38v23H63V0H32v-167H5v-23h27c-7-52 17-82 69-68v24" id="U"/><g id="l"><use transform="matrix(0.05,0,0,0.05,0,0)" xlink:href="#U"/><use transform="matrix(0.05,0,0,0.05,5,0)" xlink:href="#y"/><use transform="matrix(0.05,0,0,0.05,8.95,0)" xlink:href="#O"/><use transform="matrix(0.05,0,0,0.05,12.899999999999999,0)" xlink:href="#G"/><use transform="matrix(0.05,0,0,0.05,17.9,0)" xlink:href="#B"/><use transform="matrix(0.05,0,0,0.05,27.899999999999995,0)" xlink:href="#x"/><use transform="matrix(0.05,0,0,0.05,33.85,0)" xlink:href="#B"/><use transform="matrix(0.05,0,0,0.05,43.85,0)" xlink:href="#N"/></g></defs></g></svg>